<svg xmlns:xlink="http://www.w3.org/1999/xlink" xmlns="http://www.w3.org/2000/svg" width="128" height="25.41176470588235" viewBox="0 0 136 27" fill="none">
<path fill-rule="evenodd" clip-rule="evenodd" d="M45.6774 5.97975V17.8868V17.8938V17.8973L45.6669 18.5544V18.585L45.6555 18.6183C45.204 19.8949 44.084 20.9746 42.7321 21.7639C41.1912 22.6634 39.3432 23.191 37.8566 23.2006V23.2006C36.37 23.191 34.522 22.6634 32.9802 21.7639C31.6292 20.9746 30.5084 19.8949 30.0577 18.6183L30.0464 18.585V18.5544L30.035 17.8973V17.8938V17.8868V5.97975H34.5421V17.9331C34.5421 18.2814 34.5876 18.788 34.7784 19.2929C34.9122 19.6464 35.1196 19.999 35.4329 20.2983C35.6901 20.545 36.0226 20.7559 36.4505 20.902C36.8364 21.0333 37.301 21.1111 37.8566 21.1155V21.1155C38.4122 21.1111 38.8769 21.0333 39.2619 20.902C39.6889 20.7559 40.0222 20.545 40.2804 20.2983C40.5936 19.999 40.801 19.6464 40.934 19.2929C41.1256 18.788 41.1711 18.2814 41.1711 17.9331V5.97975H45.6774ZM61.6382 22.6415C61.6382 19.124 61.647 15.7841 61.647 12.2675C60.3809 9.926 57.2904 9.779 55.025 9.82713C53.6022 9.85775 52.1646 10.0581 50.7926 10.4291C50.0865 10.619 49.4749 10.8614 49.0234 11.1589V11.1598L49.0015 11.172L48.914 11.2315V11.3391V11.3619V22.6415V22.6844V22.883H49.1091H49.152H52.6774H52.7202H52.9154V22.6844V22.6415V12.1573C53.5865 11.7985 54.4711 11.6821 55.2315 11.6909C56.5431 11.7093 57.6902 12.3209 57.6377 14.1558V22.6415V22.6844V22.883H57.8337H57.8749H61.402H61.444H61.6382V22.6844V22.6415ZM126.715 22.6424V11.2315C127.202 10.9086 127.727 10.6698 128.281 10.4904C128.872 10.2996 129.535 10.1553 130.225 10.0564C130.961 9.94963 131.728 9.89363 132.469 9.88663C133.264 9.87875 134.337 9.93388 135.123 10.0433V12.2903C134.365 11.7994 132.945 11.7679 132.064 11.8213C131.573 11.851 131.085 11.9455 130.688 12.1573V22.6424V22.6844V22.883H130.494H130.451H126.953H126.91H126.715V22.6844V22.6424ZM123.805 22.3816C122.501 22.9959 120.861 23.2269 119.421 23.2269C117.918 23.2286 116.362 23.0956 115.074 22.2224V22.2233C114.704 21.9826 114.405 21.6501 114.165 21.2625C113.93 20.8801 113.752 20.4496 113.618 19.9981C113.467 19.4924 113.366 18.9525 113.297 18.4144C113.063 16.5629 113.104 14.4813 113.764 12.7313C114.522 10.7249 116.328 10.066 118.278 9.97675C118.494 9.968 118.724 9.96363 118.976 9.96363C119.219 9.96363 119.452 9.97063 119.673 9.98463C121.256 10.0844 123.016 10.6164 123.831 12.1319C124.597 13.5494 124.433 15.526 124.433 17.0651H117.444C117.446 18.0338 117.4 19.1301 117.844 20.0104C118.344 21.0044 119.518 21.2459 120.495 21.1995C121.722 21.1418 122.834 20.7428 123.805 19.9824V22.3816ZM117.444 14.2914V15.1559H120.379V14.2914C120.379 13.5774 120.331 12.9071 120.114 12.4285C119.883 11.914 119.448 11.6681 118.907 11.6681C118.371 11.6681 117.936 11.9175 117.706 12.4285C117.489 12.9071 117.444 13.5774 117.444 14.2914V14.2914ZM108.908 11.9455V19.789C108.908 20.895 109.275 21.1531 109.845 21.1531C110.11 21.1531 110.417 21.1076 110.751 21.056H110.752C110.807 21.049 110.845 21.0429 110.954 21.0263L111.175 20.9956V21.2249V21.9826V22.7395V22.9101L111.011 22.9373L110.975 22.9425C110.941 22.9478 110.904 22.9539 110.866 22.96C110.139 23.0816 108.811 23.3013 107.667 23.2006C106.721 23.1971 106.048 22.8638 105.596 22.3134C105.09 21.6948 104.876 20.8075 104.876 19.8161V11.9455H100.066V19.789C100.066 20.6194 100.266 20.9738 100.593 21.0919C100.949 21.2214 101.5 21.1181 102.115 21.0263L102.338 20.9939V21.2249V22.7395V22.9101L102.173 22.9373L102.138 22.9425C101.866 22.9863 102.054 22.9556 101.975 22.9696C101.245 23.0921 100.01 23.2995 98.8896 23.2006C97.7285 23.1971 97.0136 22.8288 96.5857 22.2119C96.1631 21.6046 96.0362 20.7708 96.0362 19.8161V11.9455H93.5644V10.3495L96.0187 10.3513L96.0249 5.98763H100.066V10.3513L102.579 10.3495L104.902 10.3513V5.98588C105.823 5.98588 107.985 5.98763 108.908 5.98763V10.3495H112.525V11.9455H108.908ZM87.5864 8.97925H91.5912V6.05588H87.5864V8.97925ZM87.5864 22.883H91.5912V10.3591H87.5864V22.883ZM78.7331 6.07425C79.693 6.07425 80.5829 6.16788 81.3616 6.35163C82.1316 6.53275 82.7957 6.80313 83.3155 7.16363C83.9184 7.581 84.3261 8.08238 84.5912 8.65025C84.852 9.212 84.9701 9.83588 84.9955 10.5035C85.0174 11.1046 84.8975 11.6541 84.6761 12.1345C84.4355 12.6578 84.0741 13.0953 83.6462 13.4278C83.2927 13.7008 82.9314 13.9361 82.5149 14.1286C82.1631 14.2931 81.7737 14.4244 81.317 14.5276L85.5284 22.883H81.1289L76.7836 13.9808C77.376 13.9974 77.9614 14.0123 78.5467 13.8994C79.0971 13.7935 79.6877 13.5765 80.1865 13.139C80.5024 12.8643 80.743 12.5151 80.904 12.0715C81.0685 11.6183 81.1516 11.0653 81.1464 10.3906C81.142 9.7965 81.058 9.2995 80.862 8.88738C80.6712 8.48313 80.3702 8.15588 79.931 7.89688C79.3106 7.52938 78.2939 7.54163 77.0969 7.55388C76.9236 7.55563 76.746 7.55825 76.5649 7.55825H76.564V22.883H72.6466L72.6414 6.07425H78.7331ZM64.9457 8.97925H68.9506V6.05588H64.9457V8.97925ZM64.9457 22.6415V10.3591H68.9506V22.6415V22.6844V22.883H68.7546H68.7117H65.182H65.14H64.9457V22.6844V22.6415Z" fill="#050305"/>
<path fill-rule="evenodd" clip-rule="evenodd" d="M-0.000350952 0H7.53515C9.9274 0 11.9574 0.47425 13.2506 1.41225C14.7136 2.47625 15.2264 3.95675 15.2876 5.67613C15.3436 7.27213 14.6541 8.5645 13.661 9.373C12.7851 10.0861 11.8751 10.5884 10.4655 10.8693L15.8293 22.0281H10.7683L5.45265 10.6067C6.3784 10.6339 8.20015 10.6435 9.55465 9.40187C10.4226 8.6065 10.8829 7.385 10.8689 5.51337C10.8549 3.84737 10.4051 2.69587 9.19152 1.94337C8.21765 1.3405 6.62165 1.44375 4.76315 1.45337H4.51377V16.3861C4.51377 18.4476 5.15515 20.1661 6.19115 21.5031C7.92015 23.7317 10.749 24.9034 13.5508 24.85C14.9464 24.8238 16.3341 24.4904 17.5775 23.8735C18.4228 23.4553 19.1998 22.9197 19.8648 22.2451L20.066 22.0211H17.6834L12.2444 10.983C15.0768 10.5026 17.1339 8.25125 17.021 5.32963C16.8933 2.01338 14.9525 0.588875 11.6853 0H13.7599C15.8179 0 17.7385 0.3325 19.0939 1.435C20.2296 2.35812 20.8185 3.13687 21.004 5.15375C21.1528 6.77337 20.7205 8.25913 19.6408 9.30475C18.9933 9.93125 18.3151 10.4318 17.1059 10.7371L21.634 19.4722L21.6795 19.3463C21.998 18.4573 22.1748 17.5149 22.1748 16.4316V0H26.688L26.681 18.5693C25.5768 20.9318 23.6176 23.5235 21.1405 24.8465C18.8848 26.0505 16.202 26.7085 13.3443 26.6079C9.99652 26.6079 7.04952 25.7171 4.6669 24.1938C2.69377 22.9329 1.11002 20.6299 0.00752405 18.648L-0.000350952 0Z" fill="#DD2B27"/>
</svg>